<svg viewBox="0 0 24 24" xmlns="http://www.w3.org/2000/svg">
  <!-- форма -->
  <path d="M12 2.5l2 1.2 2.3-.2 1.2 2 2 1.2-.2 2.3 1.2 2-1.2 2 .2 2.3-2 1.2-1.2 2-2.3-.2-2 1.2-2-1.2-2.3.2-1.2-2-2-1.2.2-2.3-1.2-2 1.2-2-.2-2.3 2-1.2 1.2-2 2.3.2 2-1.2z" fill="white"></path>

  <!-- верхний кружок (ближе к линии) -->
  <circle cx="9.5" cy="9.5" r="1.5" fill="#1F1B24"></circle>

  <!-- нижний кружок -->
  <circle cx="14.5" cy="14.5" r="1.5" fill="#1F1B24"></circle>

  <!-- диагональная линия -->
  <line x1="9" y1="15" x2="15" y2="9" stroke="#1F1B24" stroke-width="1.6" stroke-linecap="round"></line>
</svg>