<svg xmlns="http://www.w3.org/2000/svg" viewBox="0 0 257 207" role="img" aria-label="Car icon">
  <path fill="#fff" fill-rule="evenodd" d="M 207.0 181.5 L 187.0 181.5 L 182.0 179.5 L 177.5 174.0 L 177.5 160.0 L 175.0 157.5 L 81.0 157.5 L 78.5 160.0 L 78.5 173.0 L 72.0 180.5 L 49.0 181.5 L 44.0 179.5 L 38.5 170.0 L 38.5 157.0 L 33.5 154.0 L 30.5 148.0 L 30.5 113.0 L 35.5 99.0 L 41.5 92.0 L 41.0 88.5 L 35.0 87.5 L 30.5 82.0 L 32.5 68.0 L 37.0 65.5 L 52.0 65.5 L 60.0 70.5 L 66.5 45.0 L 74.0 36.5 L 83.0 32.5 L 173.0 32.5 L 180.0 35.5 L 190.5 48.0 L 196.0 70.5 L 203.0 65.5 L 220.0 65.5 L 224.5 70.0 L 223.5 85.0 L 214.5 89.0 L 224.5 109.0 L 224.5 150.0 L 216.5 158.0 L 216.5 173.0 L 214.5 177.0 L 207.0 181.5 Z M 180.5 80.0 L 181.5 76.0 L 176.5 52.0 L 172.0 47.5 L 85.0 47.5 L 80.5 52.0 L 75.5 75.0 L 76.0 80.5 L 180.5 80.0 Z M 74.5 119.0 L 72.5 107.0 L 69.0 103.5 L 46.5 104.0 L 48.5 113.0 L 55.0 118.5 L 74.5 119.0 Z M 198.5 119.0 L 206.5 114.0 L 209.5 105.0 L 187.0 103.5 L 183.5 107.0 L 181.5 119.0 L 198.5 119.0 Z M 140.5 143.0 L 148.0 140.5 L 154.5 134.0 L 160.5 119.0 L 160.5 114.0 L 158.0 111.5 L 97.0 111.5 L 94.5 114.0 L 100.5 133.0 L 108.0 140.5 L 117.0 143.5 L 140.5 143.0 Z M 60.5 150.0 L 63.5 143.0 L 59.0 138.5 L 41.0 138.5 L 38.5 141.0 L 40.0 150.5 L 60.5 150.0 Z M 216.5 150.0 L 217.5 141.0 L 215.0 138.5 L 197.0 138.5 L 192.5 143.0 L 192.5 147.0 L 196.0 150.5 L 216.5 150.0 Z"/>
</svg>